<?xml version="1.0" encoding="utf-8"?>
<!-- Generator: Adobe Illustrator 24.3.0, SVG Export Plug-In . SVG Version: 6.00 Build 0)  -->
<svg version="1.1" id="Layer_1" xmlns:serif="http://www.serif.com/"
	 xmlns="http://www.w3.org/2000/svg" xmlns:xlink="http://www.w3.org/1999/xlink" x="0px" y="0px" viewBox="0 0 595.3 595.3"
	 style="enable-background:new 0 0 595.3 595.3;" xml:space="preserve">
<style type="text/css">
	.st0{fill:#FFFFFF;}
	.st1{fill:#967117;}
</style>
<path class="st0" d="M595.3,297.6C595.3,133.3,462,0,297.6,0S0,133.3,0,297.6c0,148.6,108.8,271.7,251.1,294v-208h-75.6v-86h75.6
	v-65.6c0-74.6,44.4-115.8,112.4-115.8c32.6,0,66.6,5.8,66.6,5.8v73.2h-37.5c-37,0-48.5,22.9-48.5,46.5v55.8h82.5l-13.2,86h-69.4v208
	C486.4,569.3,595.3,446.2,595.3,297.6z"/>
<path class="st1" d="M413.5,383.7l13.2-86h-82.5v-55.8c0-23.5,11.5-46.5,48.5-46.5h37.5v-73.2c0,0-34.1-5.8-66.6-5.8
	c-68,0-112.4,41.2-112.4,115.8v65.6h-75.6v86h75.6v208c15.2,2.4,30.7,3.6,46.5,3.6s31.4-1.2,46.5-3.6v-208H413.5z"/>
</svg>
